# xmcd
#
# Track frame offsets:
#	150
#	21910
#	36385
#	50742
#	67127
#	86010
#	96940
#	108717
#	124847
#	137010
#	150612
#
# Disc length: 2360 seconds
#
# Revision: 1
# Processed by: cddbd v1.5.1PL0 Copyright (c) Steve Scherf et al.
# Submitted via: audiograbber 1.83.01
#
DISCID=a109360b
DTITLE=Jakub Smolik - Country 95
DYEAR=1995
DGENRE=Country
TTITLE0=Ave Maria
TTITLE1=Mas Oci My Mamy
TTITLE2=Jeste Nechod Spat
TTITLE3=Chvala Blaznovstvy
TTITLE4=Az Me Andele
TTITLE5=Mame
TTITLE6=Laska
TTITLE7=Sasek
TTITLE8=Mam Lasku Jinou
TTITLE9=O Nespocetne Krase Tela
TTITLE10=Ticha Noc
EXTD=
EXTT0=
EXTT1=
EXTT2=
EXTT3=
EXTT4=
EXTT5=
EXTT6=
EXTT7=
EXTT8=
EXTT9=
EXTT10=
PLAYORDER=
